<svg viewBox="0 0 95 28" xmlns="http://www.w3.org/2000/svg">
<path d="M 0 28 L 0 0 L 28 0 L 28 28 Z" fill="transparent"></path>
<path d="M 0 28 L 0 0 L 28 0 L 28 28 Z" fill="rgb(249, 249, 249)"></path>
<path d="M 2.772 2.775 C 9.605 7.855 18.96 7.855 25.794 2.775 C 20.714 9.608 20.714 18.963 25.794 25.797 C 18.96 20.717 9.605 20.717 2.772 25.797 C 7.852 18.963 7.852 9.608 2.772 2.775 Z" fill="rgb(0, 0, 0)"></path>
<path d="M 44.604 8.465 L 41.639 8.465 L 41.639 19.629 L 44.761 19.629 C 48.601 19.629 50.224 17.508 50.224 13.828 C 50.224 10.149 48.538 8.465 44.604 8.465 Z M 37.143 23.402 L 37.143 4.691 L 45.166 4.691 C 51.754 4.691 54.689 8.215 54.689 13.828 C 54.689 19.442 51.223 23.402 45.198 23.402 Z" fill="rgb(249, 249, 249)"></path>
<path d="M 61.731 20.284 C 63.541 20.284 64.728 19.224 64.728 17.727 L 64.728 17.29 L 61.543 17.29 C 60.295 17.29 59.545 17.852 59.545 18.662 C 59.545 19.567 60.107 20.284 61.731 20.284 Z M 64.728 23.402 L 64.728 19.785 L 64.665 19.785 C 64.01 22.311 62.386 23.714 59.889 23.714 C 57.329 23.714 55.393 22.311 55.393 19.411 C 55.393 16.729 56.985 14.889 60.888 14.889 L 64.728 14.889 L 64.728 14.265 C 64.728 12.675 64.041 11.802 62.417 11.802 C 61.013 11.802 60.107 12.425 59.826 14.14 L 55.83 13.579 C 56.205 10.492 58.015 8.278 62.605 8.278 C 67.1 8.278 68.974 10.46 68.974 14.234 L 68.974 23.402 Z" fill="rgb(249, 249, 249)"></path>
<path d="M 74.894 23.402 L 70.617 23.402 L 70.617 8.621 L 74.894 8.621 L 74.894 13.891 L 74.957 13.891 C 75.674 9.4 76.892 8.621 78.953 8.621 L 79.671 8.621 L 79.671 13.486 L 78.047 13.486 C 75.643 13.486 74.894 14.14 74.894 16.355 Z" fill="rgb(249, 249, 249)"></path>
<path d="M 84.833 4.286 L 84.833 14.39 L 85.083 14.39 L 89.704 8.621 L 94.636 8.621 L 94.636 8.683 L 88.455 15.887 L 94.917 23.34 L 94.917 23.402 L 89.891 23.402 L 85.02 17.477 L 84.833 17.477 L 84.833 23.402 L 80.556 23.402 L 80.556 4.286 Z" fill="rgb(249, 249, 249)"></path>
</svg>