<svg xmlns="http://www.w3.org/2000/svg" fill="currentColor" viewBox="0 0 131 38"><g clip-path="url(#a)"><path d="M0 46.14V13.57h21.71V19H6.8v8.14h13.57v5.43H6.79v13.57H0ZM125.07 4.07c0-.34.09-.65.25-.92.17-.29.4-.5.67-.67.28-.17.59-.25.93-.25a1.78 1.78 0 0 1 1.44.72c.17.22.27.47.3.75h-.9a.7.7 0 0 0-.29-.44.92.92 0 0 0-.55-.18.94.94 0 0 0-.5.14c-.14.09-.26.2-.35.36a.94.94 0 0 0-.13.49.97.97 0 0 0 .48.85c.15.1.32.14.5.14.2 0 .38-.06.53-.17a.73.73 0 0 0 .28-.45h.9c-.04.28-.14.53-.3.76a1.67 1.67 0 0 1-1.41.71 1.8 1.8 0 0 1-.93-.24c-.28-.17-.5-.4-.67-.67a1.8 1.8 0 0 1-.25-.93Zm1.82 3.4a3.32 3.32 0 0 1-2.4-1 3.28 3.28 0 0 1-1-2.4 3.33 3.33 0 0 1 1-2.4 3.4 3.4 0 0 1 3.72-.73 3.36 3.36 0 0 1 1.8 1.81 3.33 3.33 0 0 1 .02 2.64 3.44 3.44 0 0 1-1.82 1.81c-.4.18-.85.26-1.32.26Zm0-.97a2.39 2.39 0 0 0 1.73-.7 2.4 2.4 0 0 0 .51-2.67 2.46 2.46 0 0 0-2.24-1.49 2.36 2.36 0 0 0-1.71.71 2.46 2.46 0 0 0-.53 2.67 2.45 2.45 0 0 0 2.24 1.48ZM0 1.36h21.71v5.43H0zm115.36 44.78V21.71h6.57v4.27h.25a6.31 6.31 0 0 1 2.24-3.44c1.65-1.23 3.9-1.43 5.87-.94v6.01c-1.75-.52-4.03-.6-5.64.29a4.8 4.8 0 0 0-2.52 4.42v13.82h-6.77ZM88.68 21.71v5.1H73.96v-5.1h14.72ZM77.3 15.86h6.78v22.78c0 .62.1 1.1.29 1.46.19.34.45.58.79.71.35.14.75.21 1.2.21.33 0 .65-.03.96-.08l.73-.14 1.07 5.04c-.34.1-.82.23-1.43.37-.62.14-1.36.23-2.24.27a10.3 10.3 0 0 1-4.3-.66 6 6 0 0 1-2.84-2.32 7.1 7.1 0 0 1-1-3.97V15.86ZM61.1 46.62c-7.28 0-12.02-5.48-12.02-12.6 0-7.1 4.31-12.62 12.03-12.62 7.7 0 12.02 5.52 12.02 12.62 0 7.11-4.75 12.6-12.02 12.6Zm.04-5.25c3.87 0 5.1-4.19 5.1-7.4 0-3.19-1.1-7.4-5.1-7.4-4 0-5.17 4.16-5.17 7.4 0 3.26 1.25 7.4 5.17 7.4Zm-26.6 5.25c-7.29 0-12.03-5.48-12.03-12.6 0-7.1 4.31-12.62 12.03-12.62 7.7 0 12.02 5.52 12.02 12.62 0 7.11-4.75 12.6-12.02 12.6Zm.03-5.25c3.87 0 5.1-4.19 5.1-7.4 0-3.19-1.1-7.4-5.1-7.4-4 0-5.17 4.16-5.17 7.4 0 3.26 1.25 7.4 5.17 7.4Zm66.73 5.25c-4.4 0-8.56-1.86-10.65-5.88a14.4 14.4 0 0 1-1.46-6.7c0-6.99 4.02-12.64 11.85-12.64 7.82 0 11.48 5.5 11.48 12.4v1.86H91.89v-4.2h14.25a4.85 4.85 0 0 0-5-5 5.23 5.23 0 0 0-5.26 5.23v3.99c0 3.31 2.11 5.88 5.54 5.88 2 0 3.94-.86 4.69-2.83l6.27.42c-1.1 5.17-6.2 7.47-11.07 7.47Z"></path></g><defs><clipPath id="a"><path d="M0 0h131v38H0z"></path></clipPath></defs></svg>