<svg height="30" viewBox="0 0 104 25" fill="none" xmlns="http://www.w3.org/2000/svg"><path d="M4.08912 24.5V21.4803H9.75098V16.4476H9.68807C9.6671 16.4895 9.57274 16.6468 9.40498 16.9194C9.25819 17.192 9.01704 17.4961 8.68152 17.8316C8.346 18.1671 7.90564 18.4607 7.36042 18.7123C6.83617 18.943 6.17562 19.0583 5.37877 19.0583C3.47051 19.0583 2.09699 18.4502 1.25819 17.2339C0.419397 16.0177 0 14.4345 0 12.4843C0 10.4502 0.419397 8.83552 1.25819 7.64024C2.11796 6.42398 3.49148 5.81586 5.37877 5.81586C6.21756 5.81586 6.90957 5.95216 7.45478 6.22477C8 6.47641 8.42988 6.78047 8.74443 7.13696C9.05898 7.49345 9.27916 7.81848 9.40498 8.11206C9.55177 8.40564 9.63565 8.58388 9.65662 8.64679H9.71953L9.75098 5.81586H13.0537V19.8447C13.0537 21.5642 12.7077 22.77 12.0157 23.462C11.3447 24.154 10.2962 24.5 8.87025 24.5H4.08912ZM6.38532 16.3532C7.55963 16.3532 8.40891 15.9967 8.93316 15.2837C9.45741 14.5498 9.71953 13.6166 9.71953 12.4843C9.71953 11.3938 9.46789 10.4921 8.96461 9.77916C8.46134 9.04522 7.62254 8.67824 6.44823 8.67824C5.58847 8.67824 4.91743 8.86697 4.43512 9.24443C3.95282 9.60092 3.60682 10.0727 3.39712 10.6599C3.20839 11.2261 3.11402 11.8342 3.11402 12.4843C3.11402 13.1343 3.1979 13.7634 3.36566 14.3716C3.55439 14.9587 3.87942 15.441 4.34076 15.8185C4.82307 16.175 5.50459 16.3532 6.38532 16.3532Z" fill="#0A0A1B"></path><path d="M15.7466 18.7438V1.03473H18.892V18.7438H15.7466Z" fill="#0A0A1B"></path><path d="M21.7635 18.7438V1.03473H25.0663V8.61533H25.1292C25.1501 8.55242 25.2235 8.38467 25.3494 8.11206C25.4961 7.81848 25.7163 7.49345 26.0099 7.13696C26.3245 6.78047 26.7439 6.47641 27.2681 6.22477C27.8133 5.95216 28.4948 5.81586 29.3127 5.81586C30.445 5.81586 31.3363 6.05701 31.9863 6.53932C32.6364 7.00065 33.1082 7.58781 33.4018 8.30079C33.6954 9.01376 33.8736 9.74771 33.9365 10.5026C34.0204 11.2575 34.0623 11.9181 34.0623 12.4843V18.7438H30.9483V12.4528C30.9483 11.7608 30.8749 11.1317 30.7281 10.5655C30.6023 9.97837 30.3402 9.51704 29.9418 9.18152C29.5433 8.82503 28.9352 8.64679 28.1174 8.64679C27.2996 8.64679 26.6705 8.83552 26.2301 9.21297C25.7897 9.59043 25.4857 10.0832 25.3179 10.6913C25.1501 11.2785 25.0663 11.9076 25.0663 12.5786V18.7438H21.7635Z" fill="#0A0A1B"></path><path d="M37.7588 18.7752V8.0806H35.9973V5.81586H37.7588V3.70839C37.7588 2.57602 38.0104 1.75819 38.5137 1.25491C39.0379 0.751638 39.8138 0.5 40.8413 0.5H44.2384V2.98493H40.9672V5.81586H44.1441V8.0806H40.9672V18.7752H37.7588Z" fill="#0A0A1B"></path><path d="M47.5439 18.7438C46.768 18.7438 46.2543 18.555 46.0026 18.1776C45.751 17.8001 45.6252 17.3388 45.6252 16.7936C45.6252 16.2903 45.751 15.8499 46.0026 15.4725C46.2752 15.095 46.789 14.9063 47.5439 14.9063C48.2569 14.9063 48.7392 15.095 48.9908 15.4725C49.2634 15.8499 49.3997 16.2903 49.3997 16.7936C49.3997 17.3388 49.2634 17.8001 48.9908 18.1776C48.7392 18.555 48.2569 18.7438 47.5439 18.7438Z" fill="#0A0A1B"></path><path d="M58.5204 19.0583C57.3041 19.0583 56.2032 18.8172 55.2176 18.3349C54.2321 17.8316 53.4457 17.0976 52.8585 16.133C52.2714 15.1474 51.9778 13.9522 51.9778 12.5472C52.0197 11.1422 52.3238 9.93644 52.89 8.92988C53.4771 7.92333 54.253 7.14744 55.2176 6.60223C56.2032 6.05701 57.3251 5.7844 58.5833 5.7844C59.8625 5.7844 60.9529 6.03604 61.8546 6.53932C62.7773 7.02163 63.4902 7.66121 63.9935 8.45806C64.4968 9.23394 64.7799 10.0413 64.8428 10.8801H61.8861C61.5715 9.32831 60.502 8.55242 58.6777 8.55242C57.5453 8.55242 56.6646 8.89843 56.0355 9.59043C55.4273 10.2824 55.1233 11.1841 55.1233 12.2955C55.1233 13.5118 55.4169 14.4869 56.004 15.2208C56.6121 15.9338 57.5034 16.2903 58.6777 16.2903C59.4745 16.2903 60.1665 16.0806 60.7537 15.6612C61.3618 15.2418 61.7393 14.6232 61.8861 13.8054H64.8428C64.7799 14.7071 64.4863 15.5564 63.9621 16.3532C63.4588 17.1501 62.7458 17.8001 61.8231 18.3034C60.9214 18.8067 59.8205 19.0583 58.5204 19.0583Z" fill="#0A0A1B"></path><path d="M67.2255 18.7438V1.03473H70.5283V8.61533H70.5912C70.6121 8.55242 70.6855 8.38467 70.8113 8.11206C70.9581 7.81848 71.1783 7.49345 71.4719 7.13696C71.7864 6.78047 72.2058 6.47641 72.7301 6.22477C73.2753 5.95216 73.9568 5.81586 74.7747 5.81586C75.907 5.81586 76.7982 6.05701 77.4483 6.53932C78.0984 7.00065 78.5702 7.58781 78.8638 8.30079C79.1573 9.01376 79.3356 9.74771 79.3985 10.5026C79.4824 11.2575 79.5243 11.9181 79.5243 12.4843V18.7438H76.4103V12.4528C76.4103 11.7608 76.3369 11.1317 76.1901 10.5655C76.0643 9.97837 75.8022 9.51704 75.4037 9.18152C75.0053 8.82503 74.3972 8.64679 73.5794 8.64679C72.7615 8.64679 72.1324 8.83552 71.6921 9.21297C71.2517 9.59043 70.9477 10.0832 70.7799 10.6913C70.6121 11.2785 70.5283 11.9076 70.5283 12.5786V18.7438H67.2255Z" fill="#0A0A1B"></path><path d="M86.5235 19.0583C84.7411 19.0583 83.4724 18.4502 82.7175 17.2339C81.9626 16.0177 81.5851 14.424 81.5851 12.4528C81.5851 10.4607 81.9626 8.85649 82.7175 7.64024C83.4934 6.40301 84.762 5.7844 86.5235 5.7844C87.5301 5.7844 88.3269 5.96265 88.9141 6.31913C89.5012 6.65465 89.9416 7.03211 90.2352 7.45151C90.5287 7.8709 90.707 8.18545 90.7699 8.39515H90.8328V5.81586H94.1356V18.7438H91.3675L90.8328 16.6363H90.7699C90.707 16.825 90.5183 17.1186 90.2037 17.517C89.9101 17.8945 89.4593 18.251 88.8512 18.5865C88.264 18.901 87.4881 19.0583 86.5235 19.0583ZM87.8446 16.3532C89.0189 16.3532 89.8053 15.9862 90.2037 15.2523C90.6231 14.4974 90.8328 13.5747 90.8328 12.4843C90.8328 11.3309 90.6231 10.3978 90.2037 9.6848C89.7843 8.97182 88.9979 8.61533 87.8446 8.61533C87.0268 8.61533 86.3872 8.79358 85.9259 9.15007C85.4855 9.50655 85.171 9.97837 84.9822 10.5655C84.8145 11.1317 84.7306 11.7713 84.7306 12.4843C84.7306 13.1972 84.8145 13.8473 84.9822 14.4345C85.171 15.0216 85.4855 15.4934 85.9259 15.8499C86.3872 16.1855 87.0268 16.3532 87.8446 16.3532Z" fill="#0A0A1B"></path><path d="M100.588 18.7438C99.5602 18.7438 98.7843 18.4921 98.2601 17.9889C97.7568 17.4856 97.5052 16.6678 97.5052 15.5354V8.0806H95.555V5.81586C96.1631 5.81586 96.6349 5.75295 96.9704 5.62713C97.3059 5.50131 97.5471 5.20773 97.6939 4.7464C97.8407 4.28506 97.9141 3.54063 97.9141 2.51311H100.493V5.81586H103.45V8.0806H100.493V16.2274H103.513V18.7438H100.588Z" fill="#0A0A1B"></path></svg>