<svg width="48" height="48" viewBox="0 0 35 35" fill="none" xmlns="http://www.w3.org/2000/svg"><path _ngcontent-ng-c508314537="" d="m16.7 20.7-4.4 6.6h-10L16.7 6v14.7ZM25.3 6h-8.6v21.3h8.6V6ZM6 14a4 4 0 1 0 0-8 4 4 0 0 0 0 8Z" stroke="#C4C7C5" stroke-width="1.5" stroke-linejoin="round"></path><path _ngcontent-ng-c508314537="" d="M25.3 15.3a4.7 4.7 0 0 1 0-9.3m0 9.3V6m0 9.3a4.7 4.7 0 0 0 0-9.3" stroke="#C4C7C5" stroke-width="1.5"></path><path _ngcontent-ng-c508314537="" d="M25.3 15.3a6 6 0 0 1 0 12" stroke="#C4C7C5" stroke-width="1.5" stroke-linejoin="round"></path><path _ngcontent-ng-c508314537="" d="M25.3 27.3a6 6 0 0 1 0-12" stroke="#C4C7C5" stroke-width="1.5"></path></svg>