<svg width="52" height="52" viewBox="0 0 52 52" fill="black" stroke="black" xmlns="http://www.w3.org/2000/svg"><rect x="7" y="7" width="38" height="38" rx="10" fill="none" stroke="black" stroke-width="2"></rect><path opacity="0.2" d="M10.0759 9.38495C13.4773 10.3981 17.0076 10.9127 20.5567 10.9127H23.8401L30.4548 10.3376C33.464 10.0759 36.4822 9.95081 39.5 9.96234M44.575 27.7725C38.3 28.0454 32.0143 27.6075 25.8377 26.4672C19.6219 25.3196 13.3019 24.8846 7 25.1662M7.83878 12C9.12902 12.4398 9.89099 12.9825 9.89099 13.5697C9.89099 14.2748 8.79248 14.9157 7 15.3913M7 19.0711C7.94245 18.9252 8.88122 18.7452 9.81449 18.531L19.8547 16.2267L25.7846 14.9089C32.1034 13.5047 38.607 13.2227 45 14.0629M7 22.5137C7.51582 22.4845 8.03143 22.4501 8.54673 22.4105L12.508 22.1058C17.379 21.7311 22.2785 22.0793 27.0475 23.1391C32.9517 24.4511 39.0362 24.6682 45 23.7904M7 29.4881C13.7172 28.6796 20.5396 29.0234 27.1701 30.5206L27.7363 30.6485C32.2103 31.6587 36.7826 32.1686 41.3692 32.1686H45M7 32.7996C8.8535 32.406 11.2541 32.1686 13.8765 32.1686C19.7461 32.1686 24.5044 33.3581 24.5044 34.8255C24.5044 36.2929 19.7461 37.4825 13.8765 37.4825C11.2541 37.4825 8.8535 37.2451 7 36.8515M8 40.2748C14.3933 40.9345 20.8684 40.5534 27.1701 39.1304L27.7363 39.0026C32.2103 37.9923 36.7826 37.4825 41.3692 37.4825H45M13 44.5649C18.1882 44.6966 23.3841 44.4243 28.5405 43.7481L35.7965 42.7965H42M45 20.8356C43.1054 21.2732 40.5722 21.5406 37.7892 21.5406C31.9196 21.5406 27.1613 20.3511 27.1613 18.8837C27.1613 17.4163 31.9196 16.2267 37.7892 16.2267C40.5722 16.2267 43.1054 16.4941 45 16.9318" stroke="black" stroke-width="1.5"></path><path d="M28.1967 26.4937L24.8539 23.151C19.2544 28.6064 14.657 33.3032 12.5528 35.4729C11.8405 36.2074 11.8175 37.3474 12.4784 38.1284L13.2101 38.9932C14.0786 40.0196 15.7053 39.9227 16.4886 38.8299C17.7407 37.083 19.6661 34.5491 21.9078 32.1207C25.8713 27.8269 28.1868 26.4994 28.1967 26.4937Z" fill="blue" stroke="black" stroke-width="2"></path><path d="M24.854 23.1509C32.0975 16.0939 41.0179 7.76747 48.3875 2C45.7395 16.8948 33.4926 31.7896 33.4926 31.7896L24.854 23.1509Z" fill="white" stroke="black" stroke-width="2" stroke-linejoin="round"></path><circle cx="28.7337" cy="23.2699" r="1.07913" fill="black"></circle><circle cx="14.0791" cy="14.0791" r="2.07913"></circle></svg>