<svg version="1.1" xmlns="http://www.w3.org/2000/svg" xmlns:xlink="http://www.w3.org/1999/xlink" x="0px" y="0px" viewBox="0 0 144 36" enable-background="new 0 0 144 36" xml:space="preserve"><title>UI Ball</title><g class="logo-light"><path class="iris" d="M50.7,0.5C41,0.5,33.2,8.4,33.2,18S41,35.5,50.7,35.5S68.2,27.7,68.2,18S60.3,0.5,50.7,0.5z M59.9,28.7
      l-2.6-3.8c0.3-0.3,0.5-0.6,0.8-0.9l4,2.3C61.5,27.2,60.7,28,59.9,28.7z M36.6,16.3c0.2-1.5,0.6-2.9,1.2-4.2l3.9,2.5
      c-0.2,0.6-0.4,1.2-0.5,1.8H36.6z M41.2,19.7c0,0.2,0.1,0.5,0.2,0.7l-4.3,1.7c-0.2-0.8-0.4-1.6-0.5-2.4H41.2z M43.5,11.7l-3.9-2.5
      c0.5-0.7,1.1-1.3,1.8-1.9l2.7,3.7C43.9,11.2,43.7,11.5,43.5,11.7z M50.7,11.8c3.4,0,6.2,2.8,6.2,6.2s-2.8,6.2-6.2,6.2
      c-3.4,0-6.2-2.8-6.2-6.2S47.2,11.8,50.7,11.8z M60.1,16.3c-0.1-0.3-0.2-0.7-0.3-1l4.3-1.7c0.3,0.9,0.5,1.7,0.6,2.7L60.1,16.3z
       M49,27.4V32c-0.9-0.1-1.8-0.3-2.6-0.6l1.9-4.2C48.5,27.3,48.7,27.4,49,27.4z M52.3,27.4c0.7-0.1,1.5-0.3,2.1-0.6l2.6,3.8
      c-1.5,0.8-3.1,1.3-4.8,1.5V27.4z M59.7,21.1c0.2-0.5,0.3-0.9,0.4-1.4l4.6-0.1c-0.1,1.3-0.5,2.6-1,3.8L59.7,21.1z M62.6,10.5
      l-4.3,1.8c-0.6-0.8-1.4-1.6-2.2-2.2l1.8-4.2C59.8,7,61.4,8.6,62.6,10.5z M54.8,4.5L53,8.7c-0.8-0.2-1.5-0.3-2.3-0.3
      c-1.3,0-2.6,0.3-3.8,0.8l-2.7-3.7c1.9-1,4.1-1.6,6.5-1.6C52.1,3.9,53.5,4.1,54.8,4.5z M38.5,25.1l4.3-1.7c0.6,0.9,1.4,1.7,2.3,2.3
      L43.3,30C41.3,28.8,39.7,27.1,38.5,25.1z"></path><path fill="#071A27" d="M7.9,26.8c-6.8,0-7.9-3.5-7.9-9.6V9.2h4.1v7.8c0,4.6,0.8,6.3,3.8,6.3c3,0,3.8-1.7,3.8-6.3V9.2h4.1v8.1
      C15.8,23.3,14.7,26.8,7.9,26.8z"></path><path fill="#071A27" d="M21.3,9.4c0,0,2.6,0,4.1,0c-2.5,10.1,0,17.2,0,17.2h-4.1V9.4z"></path><path fill="#071A27" d="M83,9.4c6.4,0,8.1,1.4,8.1,4.6c0,1.7-0.6,3.1-2.6,3.8c2.4,0.7,3.1,2.3,3.1,4c0,3.5-1.3,4.8-8.6,4.8h-7.1
      c0,0,2-7.5,0-17.2C79.2,9.4,83,9.4,83,9.4z M80,16.4h3.7c2.6,0,3.4-0.6,3.4-1.9c0-1.6-1-2.1-4.2-2.1h-3V16.4z M80,23.7h3
      c3.6,0,4.6-0.5,4.6-2.2c0-1.7-1.1-2.3-3.9-2.3H80V23.7z"></path><path fill="#071A27" d="M101.2,9.4h4.9l7.1,17.2h-4.5l-1.1-3h-8l-1.1,3h-4.4L101.2,9.4z M106.4,20.5l-2.9-7.9l-2.9,7.9H106.4z"></path><path fill="#071A27" d="M116.4,9.4h4.1V23h8.1v3.6h-12.2V9.4z"></path><polyline fill="#071A27" points="144,26.6 131.8,26.6 131.8,9.4 135.9,9.4 135.9,23 144,23 	"></polyline></g><g class="logo-dark"><path fill="#ffffff" d="M7.9,26.9c-6.8,0-7.9-3.5-7.9-9.6V9.2h4.1V17c0,4.6,0.8,6.3,3.8,6.3c3,0,3.8-1.7,3.8-6.3V9.2h4.1v8.1
			C15.8,23.4,14.7,26.9,7.9,26.9z"></path><path fill="#ffffff" d="M21.3,9.5c0,0,2.6,0,4.1,0c-2.5,10.1,0,17.2,0,17.2h-4.1V9.5z"></path><path fill="#ffffff" d="M83,9.4c6.4,0,8.1,1.4,8.1,4.6c0,1.7-0.6,3.1-2.6,3.8c2.4,0.7,3.1,2.3,3.1,4c0,3.5-1.3,4.8-8.6,4.8h-7.1
			c0,0,2-7.5,0-17.2C79.2,9.4,83,9.4,83,9.4z M80,16.5h3.7c2.6,0,3.4-0.6,3.4-1.9c0-1.6-1-2.1-4.2-2.1h-3V16.5z M80,23.7h3
			c3.6,0,4.6-0.5,4.6-2.2c0-1.7-1.1-2.3-3.9-2.3H80V23.7z"></path><path fill="#ffffff" d="M101.2,9.5h4.9l7.1,17.2h-4.5l-1.1-3h-8l-1.1,3h-4.4L101.2,9.5z M106.4,20.6l-2.9-7.9l-2.9,7.9H106.4z"></path><path fill="#ffffff" d="M116.4,9.5h4.1V23h8.1v3.6h-12.2V9.5z"></path><polyline fill="#ffffff" points="144,26.6 131.8,26.6 131.8,9.5 135.9,9.5 135.9,23 144,23"></polyline><path class="iris" d="M50.7,0.3C40.6,0.3,32.5,8.7,33,18.9c0.5,8.9,7.8,16.3,16.7,16.7C60,36.2,68.4,28.1,68.4,18
      C68.4,8.2,60.4,0.3,50.7,0.3z M59.8,21.8L59.8,21.8l-0.2-0.1l0.1-0.3c0.2-0.6,0.4-1.2,0.5-1.9v-0.3h0.3h4.9h0.4v0.4
      c-0.2,1.5-0.6,3-1.2,4.5l-0.2,0.3L59.8,21.8z M45.9,32l2-4.5l0.1-0.2l0.3,0.1c0.3,0.1,0.6,0.1,0.9,0.2h0.3v0.2v4.9v0.4h-0.4
      c-1-0.1-2-0.3-3-0.6l-0.4-0.1L45.9,32z M45.9,26.1L45.9,26.1L45.9,26.1L45.9,26.1z M43.7,31l0,0.2l-0.1,0.3l-0.4-0.3
      c-0.2-0.1-0.5-0.3-0.7-0.4c-0.1-0.1-0.3-0.2-0.4-0.3c-0.2-0.1-0.4-0.3-0.6-0.4c-1.5-1.2-2.8-2.6-3.7-4.3l-0.4-0.5l0.4-0.2l4.5-2
      l0.3-0.1l0.2,0.3c0.7,1.1,1.7,2.1,2.8,2.8l0.3,0.2l0,0.1L43.7,31z M58,4.7l0.3,0.2c2.3,1.3,4.1,3.2,5.5,5.5l0.2,0.3l-0.4,0.2
      l-4.5,2L58.8,13l-0.2-0.3c-0.7-1.1-1.6-2-2.7-2.7l-0.2-0.1l0.1-0.3l2-4.6L58,4.7z M59.7,15.3L59.7,15.3L59.7,15.3L59.7,15.3z
       M57.8,31.5c-1.7,0.9-3.5,1.5-5.4,1.7H52v-0.4V28v-0.4h0.3c0.9-0.1,1.7-0.4,2.5-0.8l0.3-0.1l0.2,0.3l2.7,4l0.2,0.3L57.8,31.5z
       M49.3,11.1c5-1,9.3,3.4,8.4,8.4c-0.5,2.8-2.8,5-5.6,5.6c-5,1-9.3-3.4-8.4-8.4C44.3,13.9,46.5,11.7,49.3,11.1z M60.2,29.9L60,29.6
      l-2.7-4l-0.2-0.3l0.2-0.2c0.3-0.3,0.6-0.6,0.9-1l0.2-0.2l0.3,0.2l4.2,2.4l0.3,0.2L63,26.9c-0.7,1-1.6,1.9-2.5,2.7L60.2,29.9z
       M55.6,4l-2.1,4.6l-0.1,0.3l-0.3-0.1c-0.8-0.2-1.6-0.3-2.4-0.3c-1.3,0-2.7,0.3-3.9,0.8l-0.3,0.1l-0.2-0.3L43.5,5l-0.2-0.3l0.4-0.2
      c2.2-1.1,4.5-1.7,7-1.7c1.6,0,3.2,0.3,4.7,0.8l0.4,0.1L55.6,4z M40.9,6.3l0.2-0.2l0.1,0l0.2,0.3l2.8,4.3l0.2,0.3l-0.2,0.2
      c-0.3,0.3-0.6,0.6-0.9,0.9l-0.2,0.2L42.8,12l-4.4-2.5l-0.2-0.2L38.4,9C39.2,8,40,7.1,40.9,6.3z M36.7,11.9l0.2-0.4l0.3,0.2l4.4,2.5
      l0.3,0.2l-0.1,0.3c-0.2,0.6-0.4,1.2-0.5,1.8l-0.1,0.3H41h-5.1h-0.4v-0.4C35.7,14.8,36.1,13.3,36.7,11.9z M65.7,16.8h-0.4h-4.9h-0.2
      l-0.1-0.3c-0.1-0.3-0.1-0.6-0.2-0.9l-0.1-0.1l0.1-0.2l0.3-0.1l4.5-2L65,13l0.1,0.4c0.3,1,0.5,2,0.6,3V16.8z M35.5,19.2h0.4h4.9h0.1
      h0.3v0.3c0,0.3,0.1,0.6,0.2,0.9l0.1,0.3l-0.3,0.1l-4.6,2L36.2,23l-0.1-0.4c-0.3-1-0.5-2-0.7-3l-0.1-0.4h0H35.5z"></path></g></svg>