<svg width="116" height="24" fill="none" xmlns="http://www.w3.org/2000/svg"><path d="M26.172 19h2.95v-5.107h2.362L34.111 19h3.34l-2.969-5.547c1.563-.615 2.55-2.158 2.55-4.014v-.02c0-2.831-1.876-4.51-5.04-4.51h-5.82V19Zm2.95-7.344V7.213h2.509c1.455 0 2.383.86 2.383 2.207v.02c0 1.386-.88 2.216-2.344 2.216h-2.55Zm13.286 7.559c2.989 0 4.434-1.768 4.756-3.31l.03-.108h-2.618l-.02.058c-.204.586-.917 1.23-2.09 1.23-1.454 0-2.363-.976-2.392-2.646h7.207v-.879c0-3.164-1.924-5.244-4.99-5.244-3.066 0-5.03 2.13-5.03 5.46v.01c0 3.349 1.944 5.429 5.147 5.429Zm-.068-8.77c1.181 0 2.031.752 2.207 2.198h-4.444c.186-1.416 1.065-2.198 2.237-2.198Zm5.416 11.973h2.851v-5.205h.059c.566 1.24 1.748 2.002 3.242 2.002 2.617 0 4.239-2.05 4.239-5.45v-.01c0-3.407-1.622-5.439-4.278-5.439-1.484 0-2.627.772-3.193 2.041h-.069V8.531h-2.851v13.887Zm5.176-5.566c-1.387 0-2.334-1.192-2.334-3.077v-.01c0-1.894.947-3.085 2.334-3.085 1.416 0 2.314 1.162 2.314 3.076v.01c0 1.904-.898 3.086-2.314 3.086Zm10.503 2.363c3.165 0 5.186-2.031 5.186-5.45v-.019c0-3.389-2.06-5.43-5.195-5.43-3.125 0-5.176 2.061-5.176 5.43v.02c0 3.408 2.002 5.449 5.185 5.449Zm.01-2.236c-1.406 0-2.295-1.163-2.295-3.213v-.02c0-2.021.899-3.193 2.276-3.193 1.386 0 2.295 1.172 2.295 3.193v.02c0 2.04-.889 3.213-2.276 3.213Zm11.852 2.236c2.637 0 4.267-2.05 4.267-5.45v-.01c0-3.407-1.63-5.439-4.257-5.439-1.495 0-2.657.762-3.233 2.032h-.058v-5.44h-2.852V19h2.852v-1.787h.058c.567 1.24 1.719 2.002 3.223 2.002Zm-.947-2.363c-1.387 0-2.334-1.192-2.334-3.086v-.01c0-1.885.957-3.076 2.334-3.076 1.416 0 2.314 1.162 2.314 3.076v.01c0 1.904-.898 3.086-2.314 3.086Zm10.445 2.363c2.988 0 4.433-1.768 4.756-3.31l.03-.108h-2.618l-.02.058c-.205.586-.918 1.23-2.09 1.23-1.455 0-2.363-.976-2.392-2.646h7.207v-.879c0-3.164-1.924-5.244-4.99-5.244-3.067 0-5.03 2.13-5.03 5.46v.01c0 3.349 1.944 5.429 5.147 5.429Zm-.068-8.77c1.181 0 2.03.752 2.207 2.198H82.49c.186-1.416 1.065-2.198 2.237-2.198Zm8.53 8.721c1.378 0 2.491-.654 3.087-1.729h.058V19h2.852v-7.178c0-2.11-1.748-3.506-4.453-3.506-2.764 0-4.424 1.387-4.58 3.32l-.01.118h2.607l.02-.088c.137-.674.781-1.172 1.846-1.172 1.113 0 1.718.576 1.718 1.504v.645l-2.588.156c-2.597.166-4.072 1.28-4.072 3.183v.02c0 1.846 1.416 3.164 3.516 3.164Zm-.693-3.31v-.02c0-.742.577-1.211 1.68-1.28l2.158-.136v.752c0 1.094-.937 1.914-2.216 1.914-.987 0-1.622-.459-1.622-1.23Zm11.696 3.359c.595 0 1.054-.059 1.377-.108v-2.09c-.176.02-.362.05-.616.05-.859 0-1.298-.333-1.298-1.31V10.68h1.914V8.53h-1.914V5.973h-2.881V8.53h-1.455v2.149h1.455v5.39c0 2.246 1.094 3.145 3.418 3.145Zm6.256 0c2.695 0 4.58-1.348 4.58-3.399v-.01c0-1.542-.899-2.402-3.086-2.86l-1.778-.381c-1.054-.225-1.416-.577-1.416-1.114v-.01c0-.673.616-1.113 1.602-1.113 1.055 0 1.67.567 1.768 1.319l.009.078h2.627v-.098c-.068-1.836-1.621-3.31-4.404-3.31-2.666 0-4.385 1.288-4.385 3.28v.01c0 1.563 1.026 2.579 3.057 3.008l1.777.371c1.026.225 1.377.547 1.377 1.104v.01c0 .673-.654 1.093-1.728 1.093-1.143 0-1.758-.478-1.944-1.299l-.019-.087h-2.783l.009.088c.225 1.982 1.836 3.32 4.737 3.32ZM0 4.842C0 4.377.373 4 .833 4h18.334c.46 0 .833.377.833.842v.421a.838.838 0 0 1-.833.842H.833A.838.838 0 0 1 0 5.263v-.42Zm0 13.895c0-.465.373-.842.833-.842h18.334c.46 0 .833.377.833.842v.42a.838.838 0 0 1-.833.843H.833A.838.838 0 0 1 0 19.158v-.421ZM0 8.632c0-.466.373-.843.833-.843H5c.46 0 .833.377.833.843v.42A.838.838 0 0 1 5 9.896H.833A.838.838 0 0 1 0 9.053v-.421Zm0 3.789c0-.465.373-.842.833-.842H5c.46 0 .833.377.833.842v2.947A.838.838 0 0 1 5 16.21H.833A.838.838 0 0 1 0 15.368v-2.947Zm7.083-3.789c0-.466.373-.843.834-.843h4.166c.46 0 .834.377.834.843v.42a.838.838 0 0 1-.834.843H7.917a.838.838 0 0 1-.834-.842v-.421Zm0 3.789c0-.465.373-.842.834-.842h4.166c.46 0 .834.377.834.842v2.947a.838.838 0 0 1-.834.842H7.917a.838.838 0 0 1-.834-.842v-2.947Zm7.084-3.789c0-.466.373-.843.833-.843h4.167c.46 0 .833.377.833.843v.42a.838.838 0 0 1-.833.843H15a.838.838 0 0 1-.833-.842v-.421Zm0 3.789c0-.465.373-.842.833-.842h4.167c.46 0 .833.377.833.842v2.947a.838.838 0 0 1-.833.842H15a.838.838 0 0 1-.833-.842v-2.947Z" fill="currentColor"></path></svg>