<?xml version="1.0" encoding="UTF-8" standalone="no"?>
<svg
   version="1.1"
   id="Layer_1"
   x="0px"
   y="0px"
   viewBox="0 0 30 57.6"
   style="enable-background:new 0 0 30 57.6;"
   xml:space="preserve"
   sodipodi:docname="Symbol.svg"
   inkscape:version="1.4.1 (93de688d07, 2025-03-30)"
   xmlns:inkscape="http://www.inkscape.org/namespaces/inkscape"
   xmlns:sodipodi="http://sodipodi.sourceforge.net/DTD/sodipodi-0.dtd"
   xmlns="http://www.w3.org/2000/svg"
   xmlns:svg="http://www.w3.org/2000/svg"><defs
   id="defs2" /><sodipodi:namedview
   id="namedview2"
   pagecolor="#505050"
   bordercolor="#eeeeee"
   borderopacity="1"
   inkscape:showpageshadow="0"
   inkscape:pageopacity="0"
   inkscape:pagecheckerboard="0"
   inkscape:deskcolor="#505050"
   inkscape:zoom="9.0798614"
   inkscape:cx="14.978202"
   inkscape:cy="28.799999"
   inkscape:window-width="1134"
   inkscape:window-height="702"
   inkscape:window-x="0"
   inkscape:window-y="0"
   inkscape:window-maximized="1"
   inkscape:current-layer="g2" />
 <style
   type="text/css"
   id="style1">
.st0 {
    fill: #a435f0;
}
    </style>
 <g
   id="g2">
  <path
   class="st0"
   d="M30,17.2L15,8.6L0,17.2V8.6L15,0l15,8.6L30,17.2L30,17.2z"
   id="path1">
  </path>
  <path
   d="M0,24.4h7.9v18.9c0,4.9,3.7,7.3,7.1,7.3c3.5,0,7.1-2.4,7.1-7.3V24.4H30v19.4c0,4.5-1.4,8-4.3,10.4   c-2.9,2.4-6.4,3.5-10.8,3.5c-4.4,0-7.9-1.2-10.7-3.5C1.4,51.7,0,48.4,0,43.9V24.4z"
   id="path2"
   style="fill:#ffffff">
  </path>
 </g>
</svg>
